<svg width="17" height="17" viewBox="0 0 17 17" fill="none" xmlns="http://www.w3.org/2000/svg">
<path d="M6.90503 2.12292H9.12134C9.40303 2.12297 9.67318 2.23487 9.87239 2.43404L14.5627 7.12431C14.7618 7.32352 14.8737 7.59367 14.8738 7.87537V14.3417C14.8738 14.7644 14.7059 15.1697 14.407 15.4686C14.1081 15.7675 13.7027 15.9354 13.28 15.9354H6.37378C5.95109 15.9354 5.54571 15.7675 5.24683 15.4686C4.94794 15.1697 4.78003 14.7644 4.78003 14.3417V10.0917" stroke="white" stroke-linecap="round" stroke-linejoin="round"/>
<path d="M9.56116 2.38867V6.37305C9.56116 6.65484 9.6731 6.92509 9.87236 7.12435C10.0716 7.32361 10.3419 7.43555 10.6237 7.43555H14.608" stroke="white" stroke-linecap="round" stroke-linejoin="round"/>
<path d="M5.3114 2.65417V7.70105C5.31278 7.80608 5.29312 7.91032 5.25356 8.00763C5.214 8.10494 5.15536 8.19333 5.08109 8.26761C5.00681 8.34188 4.91841 8.40053 4.82111 8.44008C4.7238 8.47964 4.61956 8.49931 4.51453 8.49792C4.11609 8.49792 3.71765 8.19578 3.71765 7.70105V2.9198C3.71765 1.90412 4.26783 1.06042 5.3114 1.06042C6.35498 1.06042 6.90515 1.88386 6.90515 2.89921V7.50615C6.90515 8.93388 5.98144 10.0917 4.51453 10.0917C3.04761 10.0917 2.1239 8.93421 2.1239 7.50615V4.77917" stroke="white" stroke-miterlimit="10" stroke-linecap="round"/>
</svg>
