<svg width="16" height="10" viewBox="0 0 16 10" fill="none" xmlns="http://www.w3.org/2000/svg">
<path d="M5.66088 1.53078C5.95402 1.23813 5.95442 0.763261 5.66178 0.47012C5.36913 0.176978 4.89426 0.176576 4.60112 0.46922L5.66088 1.53078ZM0.47012 4.59322C0.176978 4.88587 0.176576 5.36074 0.46922 5.65388C0.761865 5.94702 1.23674 5.94742 1.52988 5.65478L0.47012 4.59322ZM1.51318 4.57706C1.21111 4.29364 0.736479 4.30875 0.453058 4.61082C0.169636 4.91289 0.184752 5.38752 0.48682 5.67094L1.51318 4.57706ZM4.61782 9.54694C4.91989 9.83036 5.39452 9.81525 5.67794 9.51318C5.96136 9.21111 5.94625 8.73648 5.64418 8.45306L4.61782 9.54694ZM1 4.374C0.585786 4.374 0.25 4.70979 0.25 5.124C0.25 5.53821 0.585786 5.874 1 5.874V4.374ZM11.37 5.124V5.874L11.3723 5.874L11.37 5.124ZM13.9326 6.17655L14.4614 5.64469V5.64468L13.9326 6.17655ZM14.25 8.73507C14.2511 9.14928 14.5879 9.48414 15.0021 9.483C15.4163 9.48185 15.7511 9.14514 15.75 8.73093L14.25 8.73507ZM4.60112 0.46922L0.47012 4.59322L1.52988 5.65478L5.66088 1.53078L4.60112 0.46922ZM0.48682 5.67094L4.61782 9.54694L5.64418 8.45306L1.51318 4.57706L0.48682 5.67094ZM1 5.874H11.37V4.374H1V5.874ZM11.3723 5.874C12.1333 5.87168 12.8641 6.17184 13.4038 6.70842L14.4614 5.64468C13.6395 4.82757 12.5267 4.37048 11.3677 4.374L11.3723 5.874ZM13.4038 6.70842C13.9435 7.245 14.2479 7.97402 14.25 8.73507L15.75 8.73093C15.7468 7.57199 15.2833 6.4618 14.4614 5.64469L13.4038 6.70842Z" fill="#323230"/>
</svg>
