<svg width="12" height="12" viewBox="0 0 12 12" fill="none" xmlns="http://www.w3.org/2000/svg">
<g clip-path="url(#clip0_259_429)">
<path d="M7.55007 0.652524C7.3482 0.44593 7.10706 0.28177 6.84084 0.169692C6.57462 0.0576134 6.28868 -0.00012207 5.99982 -0.00012207C5.71097 -0.00012207 5.42503 0.0576134 5.15881 0.169692C4.89259 0.28177 4.65145 0.44593 4.44957 0.652524L3.98307 1.13102L3.31557 1.12277C3.02664 1.11935 2.73993 1.17374 2.47232 1.28274C2.20471 1.39174 1.96159 1.55314 1.75727 1.75747C1.55294 1.96179 1.39154 2.20491 1.28254 2.47252C1.17354 2.74013 1.11915 3.02684 1.12257 3.31577L1.13007 3.98327L0.653074 4.44977C0.446479 4.65165 0.282319 4.89279 0.170241 5.15901C0.0581627 5.42523 0.000427246 5.71117 0.000427246 6.00002C0.000427246 6.28888 0.0581627 6.57482 0.170241 6.84104C0.282319 7.10726 0.446479 7.3484 0.653074 7.55027L1.13082 8.01678L1.12257 8.68427C1.11915 8.97321 1.17354 9.25992 1.28254 9.52753C1.39154 9.79514 1.55294 10.0383 1.75727 10.2426C1.96159 10.4469 2.20471 10.6083 2.47232 10.7173C2.73993 10.8263 3.02664 10.8807 3.31557 10.8773L3.98307 10.8698L4.44957 11.3468C4.65145 11.5534 4.89259 11.7175 5.15881 11.8296C5.42503 11.9417 5.71097 11.9994 5.99982 11.9994C6.28868 11.9994 6.57462 11.9417 6.84084 11.8296C7.10706 11.7175 7.3482 11.5534 7.55007 11.3468L8.01657 10.869L8.68407 10.8773C8.97301 10.8807 9.25972 10.8263 9.52733 10.7173C9.79494 10.6083 10.0381 10.4469 10.2424 10.2426C10.4467 10.0383 10.6081 9.79514 10.7171 9.52753C10.8261 9.25992 10.8805 8.97321 10.8771 8.68427L10.8696 8.01678L11.3466 7.55027C11.5532 7.3484 11.7173 7.10726 11.8294 6.84104C11.9415 6.57482 11.9992 6.28888 11.9992 6.00002C11.9992 5.71117 11.9415 5.42523 11.8294 5.15901C11.7173 4.89279 11.5532 4.65165 11.3466 4.44977L10.8688 3.98327L10.8771 3.31577C10.8805 3.02684 10.8261 2.74013 10.7171 2.47252C10.6081 2.20491 10.4467 1.96179 10.2424 1.75747C10.0381 1.55314 9.79494 1.39174 9.52733 1.28274C9.25972 1.17374 8.97301 1.11935 8.68407 1.12277L8.01657 1.13027L7.55007 0.653274V0.652524ZM7.76532 5.14052L5.51532 7.39052C5.48049 7.42545 5.43911 7.45315 5.39355 7.47206C5.34799 7.49096 5.29915 7.50069 5.24982 7.50069C5.2005 7.50069 5.15166 7.49096 5.1061 7.47206C5.06054 7.45315 5.01916 7.42545 4.98432 7.39052L3.85932 6.26552C3.82446 6.23066 3.7968 6.18927 3.77793 6.14371C3.75906 6.09816 3.74935 6.04933 3.74935 6.00002C3.74935 5.95072 3.75906 5.90189 3.77793 5.85634C3.7968 5.81078 3.82446 5.76939 3.85932 5.73452C3.89419 5.69966 3.93558 5.672 3.98114 5.65313C4.02669 5.63426 4.07552 5.62455 4.12482 5.62455C4.17413 5.62455 4.22296 5.63426 4.26851 5.65313C4.31407 5.672 4.35546 5.69966 4.39032 5.73452L5.24982 6.59477L7.23432 4.60952C7.30474 4.53911 7.40024 4.49955 7.49982 4.49955C7.59941 4.49955 7.69491 4.53911 7.76532 4.60952C7.83574 4.67994 7.8753 4.77544 7.8753 4.87502C7.8753 4.97461 7.83574 5.07011 7.76532 5.14052Z" fill="#307B74"/>
</g>
<defs>
<clipPath id="clip0_259_429">
<rect width="12" height="12" fill="white"/>
</clipPath>
</defs>
</svg>
