<svg width="16" height="17" viewBox="0 0 16 17" fill="none" xmlns="http://www.w3.org/2000/svg">
    <path fill-rule="evenodd" clip-rule="evenodd" d="M13.2001 1.12758L14.7661 2.37458C14.9173 2.51691 15.0026 2.71571 15.0014 2.92339C15.0003 3.13106 14.9129 3.32892 14.7601 3.46958L13.5701 4.89358L9.5211 9.72258C9.45027 9.80371 9.35588 9.8607 9.2511 9.88558L7.1511 10.3616C6.87559 10.3754 6.63573 10.1751 6.6001 9.90158V7.74358C6.60725 7.63955 6.64916 7.54093 6.7191 7.46358L10.6931 2.97058L12.0571 1.34158C12.3269 0.987862 12.8206 0.895446 13.2001 1.12758Z" stroke="#F9F8F4" stroke-width="1.5" stroke-linecap="round" stroke-linejoin="round"/>
    <path d="M7.53301 3.61859C7.94722 3.61859 8.28301 3.2828 8.28301 2.86859C8.28301 2.45438 7.94722 2.11859 7.53301 2.11859V3.61859ZM4.73301 2.86859L4.73301 2.11859L4.73121 2.11859L4.73301 2.86859ZM1.00001 6.61859L1.75001 6.61859L1.75001 6.61699L1.00001 6.61859ZM1.00001 12.2436L1.75001 12.2452V12.2436H1.00001ZM4.73301 15.9936L4.73121 16.7436H4.73301V15.9936ZM10.333 15.9936L10.333 16.7436L10.3348 16.7436L10.333 15.9936ZM14.066 12.2436L13.316 12.2436L13.316 12.2452L14.066 12.2436ZM14.816 8.49359C14.816 8.07938 14.4802 7.74359 14.066 7.74359C13.6518 7.74359 13.316 8.07938 13.316 8.49359H14.816ZM11.3863 2.6844C11.2282 2.30153 10.7897 2.11928 10.4068 2.27734C10.0239 2.4354 9.8417 2.87391 9.99976 3.25678L11.3863 2.6844ZM13.7319 5.62191C14.1363 5.5325 14.3917 5.13215 14.3023 4.7277C14.2129 4.32326 13.8126 4.06786 13.4081 4.15727L13.7319 5.62191ZM3.80001 12.4316C3.3858 12.4316 3.05001 12.7674 3.05001 13.1816C3.05001 13.5958 3.3858 13.9316 3.80001 13.9316V12.4316ZM11.267 13.9316C11.6812 13.9316 12.017 13.5958 12.017 13.1816C12.017 12.7674 11.6812 12.4316 11.267 12.4316V13.9316ZM7.53301 2.11859H4.73301V3.61859H7.53301V2.11859ZM4.73121 2.11859C2.25081 2.12455 0.2447 4.1398 0.25001 6.6202L1.75001 6.61699C1.74647 4.96486 3.08269 3.62256 4.73481 3.61859L4.73121 2.11859ZM0.250009 6.61859V12.2436H1.75001V6.61859H0.250009ZM0.25001 12.242C0.2447 14.7224 2.25081 16.7376 4.73121 16.7436L4.73481 15.2436C3.08269 15.2396 1.74647 13.8973 1.75001 12.2452L0.25001 12.242ZM4.73301 16.7436H10.333V15.2436H4.73301V16.7436ZM10.3348 16.7436C12.8152 16.7376 14.8213 14.7224 14.816 12.242L13.316 12.2452C13.3195 13.8973 11.9833 15.2396 10.3312 15.2436L10.3348 16.7436ZM14.816 12.2436V8.49359H13.316V12.2436H14.816ZM9.99976 3.25678C10.1947 3.72891 10.5923 4.39809 11.1866 4.91515C11.7944 5.44406 12.6679 5.85712 13.7319 5.62191L13.4081 4.15727C12.9431 4.26006 12.5391 4.10363 12.1712 3.78354C11.7897 3.45159 11.5134 2.99227 11.3863 2.6844L9.99976 3.25678ZM3.80001 13.9316H11.267V12.4316H3.80001V13.9316Z" fill="#F9F8F4"/>
</svg>
