<svg width="28" height="19" viewBox="0 0 28 19" fill="none" xmlns="http://www.w3.org/2000/svg">
<path d="M1.87144 14.4865C1.63743 14.5076 1.4016 14.4796 1.17908 14.4041C0.956571 14.3286 0.752305 14.2075 0.579409 14.0483C0.406513 13.8892 0.26881 13.6957 0.17515 13.4803C0.0814889 13.2648 0.0339409 13.0321 0.0355604 12.7971L0.0540548 10.1074C0.0550789 9.95849 0.115221 9.81607 0.221252 9.71149C0.327282 9.60691 0.470514 9.54873 0.61944 9.54975L1.04844 9.5527C1.83009 9.55808 2.37205 10.12 2.69147 10.5433C2.72714 10.5943 2.77174 10.6383 2.8231 10.6734C2.83183 10.6791 2.84123 10.6837 2.85108 10.6871L2.85781 10.6882L2.86118 10.6883L2.87244 10.685C2.8837 10.6806 2.90399 10.6695 2.93224 10.645C3.02448 10.5596 3.0992 10.4572 3.15219 10.3432C3.31159 10.0287 3.42714 9.55783 3.43092 9.00753C3.43472 8.45499 3.32566 7.98254 3.17058 7.66925C3.11928 7.55421 3.04598 7.45031 2.9548 7.36341C2.93688 7.34679 2.91652 7.33301 2.89443 7.32256L2.88323 7.31912L2.87424 7.31905C2.86434 7.3223 2.85488 7.32676 2.84607 7.33234C2.79423 7.36669 2.74903 7.41013 2.71266 7.46058C2.38745 7.8795 1.83782 8.4339 1.05617 8.42853L0.62717 8.42558C0.478439 8.42456 0.336189 8.36457 0.231637 8.25878C0.127086 8.153 0.0687739 8.01005 0.0694991 7.86132L0.0879936 5.17162C0.0896052 4.93666 0.140349 4.70465 0.236964 4.49047C0.333579 4.27629 0.473929 4.08469 0.648997 3.92798C0.824064 3.77127 1.02998 3.65292 1.25351 3.58052C1.47704 3.50813 1.71324 3.48329 1.94694 3.50761L5.15136 3.80256L5.15319 3.5364C5.1547 3.3174 4.99135 3.06358 4.61934 2.77463C4.31325 2.53668 4.03943 2.17765 4.04264 1.71158C4.04702 1.07369 4.55195 0.651509 5.01962 0.422243C5.5211 0.175239 6.17341 0.0415837 6.86184 0.0463173C7.55027 0.051051 8.20069 0.193664 8.69872 0.447541C9.16319 0.683216 9.66226 1.1123 9.65788 1.7502C9.65467 2.21626 9.37595 2.57149 9.06661 2.80521C8.69067 3.08902 8.52384 3.34057 8.52234 3.55956L8.52051 3.82573L11.7287 3.57487C11.9627 3.55377 12.1985 3.58185 12.421 3.65731C12.6436 3.73277 12.8478 3.85395 13.0207 4.01305C13.1936 4.17215 13.3313 4.36566 13.425 4.58115C13.5186 4.79664 13.5662 5.02933 13.5646 5.26428L13.5461 7.95398C13.545 8.10291 13.4849 8.24533 13.3789 8.34991C13.2728 8.45449 13.1296 8.51267 12.9807 8.51165L12.5517 8.5087C11.77 8.50332 11.2281 7.94142 10.9087 7.51806C10.873 7.46712 10.8284 7.42305 10.777 7.38799C10.7683 7.38231 10.7589 7.37772 10.749 7.37433L10.7423 7.37316L10.7389 7.37313L10.7277 7.37642C10.7059 7.38669 10.6857 7.40018 10.6679 7.41644C10.5756 7.50174 10.5009 7.60423 10.4479 7.71817C10.2885 8.03267 10.173 8.50357 10.1692 9.05387C10.1654 9.60528 10.2745 10.0789 10.4295 10.3921C10.4808 10.5072 10.5541 10.6111 10.6453 10.698C10.6633 10.7146 10.6836 10.7284 10.7057 10.7388L10.7169 10.7423L10.7191 10.7423L10.7259 10.7412C10.7358 10.738 10.7453 10.7335 10.7541 10.7279C10.7845 10.7102 10.8308 10.6723 10.8875 10.5997C11.2127 10.1808 11.7623 9.62637 12.544 9.63175L12.973 9.6347C13.1219 9.63572 13.2643 9.69586 13.3689 9.80189C13.4735 9.90792 13.5317 10.0512 13.5306 10.2001L13.5121 12.8898C13.5105 13.1247 13.4598 13.3568 13.3632 13.5709C13.2665 13.7851 13.1262 13.9767 12.9511 14.1334C12.7761 14.2901 12.5702 14.4085 12.3466 14.4809C12.1231 14.5533 11.8869 14.5781 11.6532 14.5538L8.44877 14.2577L8.44694 14.525C8.44543 14.744 8.60878 14.9978 8.98079 15.2868C9.28688 15.5247 9.56069 15.8838 9.55749 16.3498C9.5531 16.9877 9.04817 17.4099 8.58051 17.6392C8.07903 17.8862 7.42672 18.0198 6.73829 18.0151C6.04986 18.0103 5.39944 17.8677 4.90141 17.6139C4.43694 17.3782 3.93786 16.9491 3.94225 16.3112C3.94546 15.8451 4.22418 15.4899 4.53352 15.2562C4.90946 14.9724 5.07629 14.7208 5.07779 14.5018L5.07963 14.2346L1.87144 14.4865Z" fill="#FF9D01"/>
<path d="M13.2899 4.13982C13.2672 3.90596 13.2937 3.66993 13.3676 3.4469C13.4415 3.22388 13.5613 3.01878 13.7192 2.8448C13.8771 2.67081 14.0697 2.53178 14.2845 2.43664C14.4994 2.3415 14.7317 2.29235 14.9667 2.29236H17.6564C17.8054 2.29236 17.9482 2.35152 18.0535 2.45683C18.1588 2.56214 18.218 2.70497 18.218 2.8539V3.28291C18.218 4.06457 17.6598 4.61038 17.2387 4.93271C17.188 4.96873 17.1442 5.01363 17.1095 5.06523C17.1039 5.074 17.0994 5.08343 17.096 5.09331L17.0949 5.10004V5.10341L17.0983 5.11464C17.1028 5.12587 17.114 5.14609 17.1387 5.17417C17.2246 5.26583 17.3276 5.33983 17.4419 5.39204C17.7575 5.54927 18.2292 5.66158 18.7795 5.66158C19.3321 5.66158 19.8038 5.54927 20.116 5.39204C20.2307 5.33996 20.3341 5.26594 20.4203 5.17417C20.439 5.15332 20.4538 5.12938 20.4641 5.10341V5.09331C20.4608 5.08342 20.4563 5.07399 20.4507 5.06523C20.4159 5.01363 20.3722 4.96873 20.3215 4.93271C19.9003 4.61038 19.3422 4.06457 19.3422 3.28291V2.8539C19.3422 2.70516 19.4012 2.5625 19.5063 2.45723C19.6113 2.35195 19.7539 2.29266 19.9026 2.29236H22.5924C22.8273 2.29235 23.0597 2.3415 23.2745 2.43664C23.4894 2.53178 23.6819 2.67081 23.8398 2.8448C23.9977 3.01878 24.1175 3.22388 24.1914 3.4469C24.2654 3.66993 24.2918 3.90596 24.2691 4.13982L23.9962 7.34619H24.2624C24.4814 7.34619 24.7341 7.1811 25.0204 6.80712C25.2563 6.49939 25.6134 6.22312 26.0795 6.22312C26.7174 6.22312 27.1431 6.72513 27.3755 7.19121C27.626 7.69098 27.7641 8.34236 27.7641 9.0308C27.7641 9.71925 27.626 10.3706 27.3755 10.8704C27.1431 11.3365 26.7174 11.8385 26.0795 11.8385C25.6134 11.8385 25.2563 11.5622 25.0204 11.2545C24.7341 10.8805 24.4814 10.7154 24.2624 10.7154H23.9962L24.2691 13.9218C24.2918 14.1557 24.2654 14.3917 24.1914 14.6147C24.1175 14.8377 23.9977 15.0428 23.8398 15.2168C23.6819 15.3908 23.4894 15.5298 23.2745 15.625C23.0597 15.7201 22.8273 15.7693 22.5924 15.7693H19.9026C19.7537 15.7693 19.6108 15.7101 19.5055 15.6048C19.4002 15.4995 19.3411 15.3566 19.3411 15.2077V14.7787C19.3411 13.997 19.8992 13.4512 20.3204 13.1289C20.3711 13.0929 20.4148 13.048 20.4495 12.9964C20.4552 12.9876 20.4597 12.9782 20.463 12.9683L20.4641 12.9616V12.9582C20.4539 12.9318 20.439 12.9075 20.4203 12.8863C20.3343 12.795 20.2313 12.7214 20.1171 12.6696C19.8015 12.5123 19.3298 12.4 18.7795 12.4C18.2281 12.4 17.7553 12.5123 17.4431 12.6696C17.3284 12.7216 17.225 12.7956 17.1387 12.8874C17.1201 12.9083 17.1053 12.9322 17.0949 12.9582V12.9616L17.096 12.9683C17.0994 12.9782 17.1039 12.9876 17.1095 12.9964C17.1275 13.0267 17.1657 13.0727 17.2387 13.1289C17.6598 13.4512 18.218 13.997 18.218 14.7787V15.2077C18.218 15.3566 18.1588 15.4995 18.0535 15.6048C17.9482 15.7101 17.8054 15.7693 17.6564 15.7693H14.9667C14.7317 15.7693 14.4994 15.7201 14.2845 15.625C14.0697 15.5298 13.8771 15.3908 13.7192 15.2168C13.5613 15.0428 13.4415 14.8377 13.3676 14.6147C13.2937 14.3917 13.2672 14.1557 13.2899 13.9218L13.564 10.7154H13.2967C13.0777 10.7154 12.825 10.8805 12.5386 11.2545C12.3027 11.5622 11.9456 11.8385 11.4795 11.8385C10.8416 11.8385 10.416 11.3365 10.1835 10.8704C9.93306 10.3706 9.79492 9.71925 9.79492 9.0308C9.79492 8.34236 9.93306 7.69098 10.1835 7.19121C10.416 6.72513 10.8416 6.22312 11.4795 6.22312C11.9456 6.22312 12.3027 6.49939 12.5386 6.80712C12.825 7.1811 13.0777 7.34619 13.2967 7.34619H13.564L13.2899 4.13982ZM14.9667 3.41543C14.8882 3.41535 14.8105 3.43174 14.7387 3.46355C14.6669 3.49535 14.6026 3.54186 14.5499 3.60007C14.4971 3.65828 14.4572 3.72689 14.4327 3.80149C14.4082 3.87608 14.3995 3.95499 14.4074 4.03312L14.4085 4.04098L14.7342 7.85944C14.7409 7.93695 14.7314 8.015 14.7063 8.08865C14.6813 8.1623 14.6412 8.22994 14.5886 8.28728C14.536 8.34461 14.4721 8.3904 14.4009 8.42173C14.3297 8.45306 14.2527 8.46924 14.1749 8.46927H13.2967C12.515 8.46927 11.9692 7.9111 11.6469 7.48995C11.6108 7.43925 11.566 7.3955 11.5143 7.36079C11.5056 7.35515 11.4962 7.35063 11.4863 7.34732L11.4795 7.34619H11.4762C11.4498 7.35643 11.4255 7.37126 11.4043 7.38999C11.313 7.47604 11.2394 7.57903 11.1875 7.69322C11.0303 8.00881 10.918 8.4805 10.918 9.0308C10.918 9.58223 11.0303 10.055 11.1875 10.3673C11.2661 10.5245 11.3448 10.62 11.4054 10.6716C11.4263 10.6902 11.4502 10.7051 11.4762 10.7154H11.4795L11.4863 10.7143C11.4962 10.711 11.5056 10.7065 11.5143 10.7008C11.566 10.6661 11.6108 10.6224 11.6469 10.5717C11.9692 10.1505 12.515 9.59234 13.2967 9.59234H14.1749C14.2526 9.59238 14.3295 9.60854 14.4006 9.6398C14.4717 9.67106 14.5356 9.71674 14.5881 9.77395C14.6407 9.83116 14.6808 9.89866 14.706 9.97218C14.7311 10.0457 14.7407 10.1236 14.7342 10.201L14.4085 14.0285C14.4007 14.1065 14.4093 14.1853 14.4337 14.2599C14.4582 14.3344 14.498 14.4029 14.5506 14.4611C14.6032 14.5193 14.6674 14.5658 14.739 14.5977C14.8107 14.6296 14.8882 14.6461 14.9667 14.6462H17.0758C17.0219 14.4597 16.8568 14.2509 16.5558 14.0206C16.2481 13.7848 15.9718 13.4276 15.9718 12.9616C15.9718 12.3237 16.4738 11.898 16.9399 11.6655C17.4397 11.4151 18.0911 11.277 18.7795 11.277C19.468 11.277 20.1193 11.4151 20.6191 11.6655C21.0852 11.898 21.5872 12.3237 21.5872 12.9616C21.5872 13.4276 21.3109 13.7848 21.0032 14.0206C20.7022 14.2509 20.5371 14.4586 20.4832 14.6462H22.5924C22.6709 14.6463 22.7486 14.6299 22.8203 14.5981C22.8921 14.5663 22.9565 14.5198 23.0092 14.4615C23.0619 14.4033 23.1018 14.3347 23.1263 14.2601C23.1509 14.1855 23.1595 14.1066 23.1516 14.0285L23.1505 14.0206L22.8248 10.2022C22.8181 10.1247 22.8276 10.0466 22.8527 9.97296C22.8778 9.89931 22.9179 9.83167 22.9704 9.77433C23.023 9.71699 23.087 9.67121 23.1582 9.63988C23.2294 9.60855 23.3063 9.59236 23.3841 9.59234H24.2624C25.044 9.59234 25.5898 10.1505 25.9122 10.5717C25.9683 10.6447 26.0144 10.6828 26.0447 10.7008C26.0593 10.7098 26.0683 10.712 26.0728 10.7143C26.0749 10.715 26.0772 10.7154 26.0795 10.7154H26.0829C26.1092 10.7052 26.1336 10.6903 26.1547 10.6716C26.246 10.5856 26.3196 10.4826 26.3715 10.3684C26.5287 10.0539 26.641 9.58223 26.641 9.0308C26.641 8.47825 26.5287 8.00656 26.3715 7.69435C26.3194 7.57966 26.2454 7.47627 26.1536 7.38999C26.1328 7.37141 26.1088 7.35659 26.0829 7.34619H26.0795L26.0728 7.34732C26.0629 7.35064 26.0535 7.35517 26.0447 7.36079C25.9931 7.3955 25.9482 7.43925 25.9122 7.48995C25.5898 7.9111 25.044 8.46927 24.2624 8.46927H23.3841C23.3063 8.46924 23.2294 8.45306 23.1582 8.42173C23.087 8.3904 23.023 8.34461 22.9704 8.28728C22.9179 8.22994 22.8778 8.1623 22.8527 8.08865C22.8276 8.015 22.8181 7.93695 22.8248 7.85944L23.1505 4.03312C23.1584 3.95509 23.1498 3.87627 23.1253 3.80175C23.1008 3.72724 23.061 3.65868 23.0084 3.60048C22.9559 3.54229 22.8917 3.49576 22.82 3.46389C22.7483 3.43202 22.6708 3.41551 22.5924 3.41543H20.4832C20.5371 3.60186 20.7022 3.81075 21.0032 4.04098C21.3109 4.27683 21.5872 4.63397 21.5872 5.10004C21.5872 5.73795 21.0852 6.1636 20.6191 6.39607C20.1193 6.64652 19.468 6.78466 18.7795 6.78466C18.0911 6.78466 17.4397 6.64652 16.9399 6.39607C16.4738 6.1636 15.9718 5.73795 15.9718 5.10004C15.9718 4.63397 16.2481 4.27683 16.5558 4.04098C16.8568 3.81075 17.0219 3.60299 17.0758 3.41543H14.9667Z" fill="#FF9D01"/>
</svg>
