<svg width="42" height="42" viewBox="0 0 42 42" fill="none" xmlns="http://www.w3.org/2000/svg">
<mask id="mask0_21_443" style="mask-type:alpha" maskUnits="userSpaceOnUse" x="0" y="0" width="42" height="42">
<circle cx="21" cy="21" r="21" fill="#9F9F9F"/>
</mask>
<g mask="url(#mask0_21_443)">
<circle cx="21" cy="21" r="21" fill="#9F9F9F"/>
<path d="M18.4315 31.7887V27.6C20.9219 28.7547 22.2776 28.6942 24.6387 27.6V31.7887C26.3888 30.2038 28.0923 29.7509 31.4759 29.7962C34.8595 29.8415 39.3942 32.8886 40.6 42H1C1.73337 35.9775 4.43029 30.9283 9.23736 30.1811C14.0444 29.434 15.0961 29.7999 18.4315 31.7887Z" fill="#FF9D01"/>
<path d="M11.0292 21.1858C11.8716 24.8971 14.672 23.0752 14.672 23.0752C16.463 26.2248 16.5919 28.1239 21.4869 28.4838C26.3819 28.8437 28.583 23.0752 28.583 23.0752C30.653 23.6659 31.9071 23.2102 32.408 20.9609C32.9089 18.7116 31.2013 17.9694 31.2013 17.9694C30.0612 17.8224 29.6003 18.0034 29.0384 18.7116C30.2843 12.3098 26.6324 9.00516 21.4869 8.71277C16.3415 8.42038 13.4079 13.1926 13.7385 18.4417C13.7385 18.4417 10.1868 17.4745 11.0292 21.1858Z" fill="#FFBFAD"/>
<path d="M18.1 33.9V27.6219C20.8 28.4122 21.9212 28.6077 24.4 27.6V29.1585V30.7829L24.3526 33.9H21.2026H18.1Z" fill="#FFBFAD"/>
<ellipse cx="18.0889" cy="18.9364" rx="0.698461" ry="0.940897" fill="black"/>
<ellipse cx="24.8407" cy="18.9364" rx="0.698461" ry="0.940897" fill="black"/>
<path d="M21.7 21.1784L21.0769 19.5L20.8 21.3L21.7 21.1784Z" fill="#FFA08C"/>
<path d="M21.1 19.5L20.8 21.3L21.7 21.0488" stroke="black" stroke-width="0.5"/>
<ellipse cx="17.6702" cy="22.3329" rx="2.3282" ry="2.18013" fill="#FFA08C"/>
<ellipse cx="25.6326" cy="22.3329" rx="2.3282" ry="2.18013" fill="#FFA08C"/>
<path d="M11.6629 19.648L13.5255 21.2085" stroke="black" stroke-width="0.5"/>
<path d="M31.5515 19.3266L30.043 21.2226" stroke="black" stroke-width="0.5"/>
<path d="M23.8345 22.6313L18.9452 22.769C18.1502 22.7935 18.9186 25.1056 21.6227 24.8115C24.3268 24.5173 24.5096 22.6772 23.8345 22.6313Z" fill="black"/>
<path d="M19.5972 23.5722C19.4342 23.5034 19.2811 23.051 19.2713 22.792L23.6483 22.7002C23.6072 23.2083 23.462 23.2968 23.1361 23.4804C22.8101 23.664 19.7602 23.6411 19.5972 23.5722Z" fill="white"/>
<path d="M19.5722 24.0249C19.4092 24.0831 19.3836 24.2153 19.5722 24.4216C19.7494 24.6154 21.1547 25.2213 22.7929 24.5642C22.9902 24.485 23.2463 24.2643 23.111 24.1003C22.9783 23.9394 19.7352 23.9667 19.5722 24.0249Z" fill="white"/>
<path d="M24.4 27.6C21.8795 28.2951 20.5381 28.2861 18.1 27.6V30.3L24.4 29.3913V27.6Z" fill="#FFA08C"/>
<path d="M33.0445 41.9522L32.4924 35.7677" stroke="black" stroke-width="0.5"/>
<path d="M8.37495 41.9482L9.0145 35.7719" stroke="black" stroke-width="0.5"/>
<path d="M24.2872 42H18.7423L12.7 30.3319C14.4673 30.1142 16.6593 31.0401 18.3124 32.2223H24.2872C25.2901 30.9594 26.7523 30.5163 29.5193 30.3536L24.2872 42Z" fill="white"/>
<rect x="15.592" y="17.6949" width="4.62204" height="2.80461" stroke="black" stroke-width="0.5"/>
<rect x="22.2506" y="17.6949" width="4.62204" height="2.80461" stroke="black" stroke-width="0.5"/>
<path d="M20.3709 18.9595H22.0239" stroke="black" stroke-width="0.5"/>
<path d="M15.9005 31.1065L19.9981 36.0563L21.6278 33.0041L18.3683 29.8142V28.9881L15.9005 31.1065Z" fill="#307B74"/>
<path d="M26.7964 31.0749L23.0713 36.0333L21.6511 33.05L24.5846 29.7684V28.9422L26.7964 31.0749Z" fill="#307B74"/>
<path d="M21.6278 33.0041L19.9981 36.0334L20.4405 36.5612L19.2298 41.9771H23.8862L22.8152 36.5612L23.0946 36.0334L21.6278 33.0041Z" fill="#FBB620"/>
<path d="M12.8498 18.0886L14.1765 18.6L14.8137 16.0494C17.8109 15.7361 18.4209 14.9598 18.6565 13.097C21.3958 15.6129 23.8587 16.23 28.1033 15.4915L29.113 18.6L30.5737 17.7698C31.3351 11.683 28.698 5.77419 21.4471 6.00664C14.1961 6.23909 12.0775 12.2612 12.8498 18.0886Z" fill="#323230"/>
</g>
</svg>
