<svg width="42" height="42" viewBox="0 0 42 42" fill="none" xmlns="http://www.w3.org/2000/svg">
<circle cx="21" cy="21" r="21" fill="#9F9F9F"/>
<mask id="mask0_264_226" style="mask-type:alpha" maskUnits="userSpaceOnUse" x="0" y="0" width="42" height="42">
<circle cx="21" cy="21" r="21" fill="#9F9F9F"/>
</mask>
<g mask="url(#mask0_264_226)">
<path d="M11.9642 20.335C11.7272 17.0614 15.1346 18.5524 15.4888 19.2948C15.4529 14.118 17.3201 11.3333 21.9542 11.3333C26.6487 11.3333 28.1464 15.1117 28.1655 19.4982C28.7343 18.3999 31.6301 17.1007 31.8337 19.4982C32.0367 21.8868 30.9148 23.7366 28.7039 23.2581C29.0699 23.4626 27.0421 29.3239 21.6049 29.4272C16.0599 29.5326 15.6619 23.4115 14.9235 23.2527C14.1851 23.0939 12.2262 23.9538 11.9642 20.335Z" fill="#FFD7D8"/>
<path d="M18.6484 31.2917V28.5238C20.8872 29.3245 22.188 29.5436 24.7891 28.5238V31.2917C28.6523 29.7773 31.7942 29.7515 34.3415 30.7336C36.8888 31.7158 40.2776 36.6934 39.9819 42.0952H2C2.50292 36.2499 3.774 32.9881 8.52743 30.7336C12.3165 29.572 14.5238 29.6176 18.6484 31.2917Z" fill="#FBB620"/>
<ellipse cx="18.7838" cy="23.6663" rx="1.85845" ry="1.76552" fill="#FFC5BF"/>
<ellipse cx="25.1398" cy="23.6663" rx="1.85845" ry="1.76552" fill="#FFC5BF"/>
<path d="M19.1905 31.2381V28.5917C21.6229 29.5137 23.0234 29.4039 25.5238 28.5238V29.6374L19.1905 31.2381Z" fill="#D3AEAA"/>
<ellipse cx="18.687" cy="20.9746" rx="0.677541" ry="0.925972" fill="black"/>
<ellipse cx="25.2365" cy="20.9746" rx="0.677541" ry="0.925972" fill="black"/>
<path d="M20.6984 21.2857L20.0952 22.1905L21.9048 22.0642" stroke="black" stroke-width="0.5"/>
<path d="M16.835 18.6339C18.2352 17.7305 18.5062 17.9789 19.8719 18.2048C19.8719 18.2048 19.0483 17.7079 18.3707 17.7531C17.6932 17.7983 17.106 18.1596 16.835 18.6339Z" fill="black"/>
<path d="M24.1976 18.2047C25.7559 18.0015 26.0643 18.1524 27.3429 18.6827C27.3429 18.6827 26.6537 18.0117 25.9837 17.9016C25.3136 17.7916 24.5138 17.8434 24.1976 18.2047Z" fill="black"/>
<path d="M12.86 19.9196L14.6668 21.4553" stroke="black" stroke-width="0.5"/>
<path d="M31.7916 19.4615L30.3282 21.3274" stroke="black" stroke-width="0.5"/>
<path d="M33.3889 41.9313L32.7935 36.3322" stroke="black" stroke-width="0.5"/>
<path d="M8.61919 41.9667L9.28711 35.9869" stroke="black" stroke-width="0.5"/>
<path d="M18.1403 42.0953L13.7619 30.3334C15.1098 30.481 15.7917 30.4058 17.121 30.9604C18.6268 38.7441 25.3912 39.3927 26.9665 30.9604C28.1815 30.6099 28.8561 30.5001 30.0476 30.4415L26.5032 42.0953H18.1403Z" fill="#307B74"/>
<path d="M15.4884 19.1786C14.8575 18.7586 14.2969 18.5287 12.8561 18.1281C11.3135 13.9332 11.7346 13.2205 14.2054 11.7628C14.2054 11.7628 15.4312 6.24902 23.0184 5.1275C30.6056 4.00597 34.9763 10.5726 31.614 13.5023C32.191 15.3746 32.1785 16.4539 31.614 18.4233C30.4453 17.5806 29.2396 18.3782 28.296 19.4762L28.1282 18.1281C22.8884 18.5523 18.961 13.8222 18.9478 12.8992C18.4696 13.5455 16.57 15.965 15.4884 19.1786Z" fill="#EFEFEF"/>
<path d="M17.4222 33.6447L17.554 34.0505H17.9807L17.6355 34.3012L17.7673 34.707L17.4222 34.4562L17.077 34.707L17.2089 34.3012L16.8637 34.0505H17.2904L17.4222 33.6447Z" fill="white"/>
<path d="M20.8777 36.9872L21.116 37.7207L21.8872 37.7207L21.2633 38.174L21.5016 38.9075L20.8777 38.4542L20.2538 38.9075L20.4921 38.174L19.8681 37.7207L20.6394 37.7207L20.8777 36.9872Z" fill="white"/>
<path d="M17.9868 35.2256L18.3062 36.2088H19.34L18.5036 36.8164L18.8231 37.7996L17.9868 37.192L17.1504 37.7996L17.4699 36.8164L16.6336 36.2088H17.6673L17.9868 35.2256Z" fill="white"/>
<path d="M24.1298 38.0715L24.3174 38.6489L24.9246 38.6489L24.4334 39.0057L24.621 39.5831L24.1298 39.2263L23.6386 39.5831L23.8263 39.0057L23.3351 38.6489L23.9422 38.6489L24.1298 38.0715Z" fill="white"/>
<path d="M26.4786 36.8517L26.6663 37.4291L27.2734 37.4291L26.7822 37.786L26.9698 38.3634L26.4786 38.0065L25.9875 38.3634L26.1751 37.786L25.6839 37.4291L26.291 37.4291L26.4786 36.8517Z" fill="white"/>
<path d="M22.2101 39.5619L22.3724 40.0613L22.8975 40.0613L22.4727 40.3699L22.6349 40.8693L22.2101 40.5607L21.7853 40.8693L21.9476 40.3699L21.5228 40.0613L22.0479 40.0613L22.2101 39.5619Z" fill="white"/>
<path d="M25.4172 39.5619L25.6606 40.311H26.4482L25.811 40.7739L26.0544 41.523L25.4172 41.06L24.78 41.523L25.0234 40.7739L24.3862 40.311H25.1738L25.4172 39.5619Z" fill="white"/>
<path d="M25.643 35.7224L25.7749 36.1282H26.2015L25.8563 36.3789L25.9882 36.7847L25.643 36.5339L25.2979 36.7847L25.4297 36.3789L25.0846 36.1282H25.5112L25.643 35.7224Z" fill="white"/>
<path d="M16.0445 31.1604L16.2423 31.769H16.8822L16.3645 32.1452L16.5623 32.7538L16.0445 32.3776L15.5268 32.7538L15.7246 32.1452L15.2068 31.769H15.8468L16.0445 31.1604Z" fill="white"/>
<path d="M19.2742 39.6973L19.406 40.1031H19.8326L19.4875 40.3538L19.6193 40.7596L19.2742 40.5088L18.929 40.7596L19.0608 40.3538L18.7157 40.1031H19.1423L19.2742 39.6973Z" fill="white"/>
<path d="M28.4887 30.4377L28.6205 30.8435H29.0472L28.702 31.0943L28.8338 31.5L28.4887 31.2492L28.1435 31.5L28.2754 31.0943L27.9302 30.8435H28.3569L28.4887 30.4377Z" fill="white"/>
<path d="M27.4498 32.922L27.6628 33.5774H28.3519L27.7944 33.9825L28.0074 34.638L27.4498 34.2329L26.8923 34.638L27.1052 33.9825L26.5477 33.5774H27.2368L27.4498 32.922Z" fill="white"/>
<path d="M19.2075 31.2482V28.6495C21.6901 29.2676 23.0642 29.2463 25.4834 28.5238V31.2482L27.3333 30.6404C26.2093 35.7748 25.1789 36.4244 22.7201 36.6549C20.2613 36.8855 17.857 33.6765 17.381 30.6404L19.2075 31.2482Z" fill="#FFD7D8"/>
<path d="M20.6503 21.5393C20.6503 21.7016 20.507 21.9201 20.1098 22.1129C19.7297 22.2974 19.1871 22.4186 18.5741 22.4186C17.9611 22.4186 17.4185 22.2974 17.0384 22.1129C16.6411 21.9201 16.4979 21.7016 16.4979 21.5393C16.4979 21.3771 16.6411 21.1586 17.0384 20.9657C17.4185 20.7812 17.9611 20.6601 18.5741 20.6601C19.1871 20.6601 19.7297 20.7812 20.1098 20.9657C20.507 21.1586 20.6503 21.3771 20.6503 21.5393Z" stroke="black" stroke-width="0.5"/>
<path d="M27.1999 21.6297C27.1999 21.7919 27.0566 22.0105 26.6594 22.2033C26.2793 22.3878 25.7366 22.509 25.1236 22.509C24.5107 22.509 23.968 22.3878 23.5879 22.2033C23.1907 22.0105 23.0474 21.7919 23.0474 21.6297C23.0474 21.4675 23.1907 21.249 23.5879 21.0561C23.968 20.8716 24.5107 20.7505 25.1236 20.7505C25.7366 20.7505 26.2793 20.8716 26.6594 21.0561C27.0566 21.249 27.1999 21.4675 27.1999 21.6297Z" stroke="black" stroke-width="0.5"/>
<path d="M20.7648 21.4263C21.6029 20.9482 22.0723 20.9198 22.9103 21.4263" stroke="black" stroke-width="0.5"/>
<path d="M20.0952 24C21.5085 25.1862 22.301 25.2263 23.7143 24" stroke="black" stroke-width="0.5" stroke-linecap="round"/>
</g>
</svg>
