<svg width="42" height="42" viewBox="0 0 42 42" fill="none" xmlns="http://www.w3.org/2000/svg">
<circle cx="21" cy="21" r="21" fill="#9F9F9F"/>
<mask id="mask0_21_358" style="mask-type:alpha" maskUnits="userSpaceOnUse" x="0" y="0" width="42" height="42">
<circle cx="21" cy="21" r="21" fill="#9F9F9F"/>
</mask>
<g mask="url(#mask0_21_358)">
<path d="M12.0112 20.5279C11.7866 17.4266 15.0147 18.8392 15.3503 19.5425C15.3162 14.6381 17.0852 12 21.4754 12C25.9228 12 27.3417 15.5795 27.3598 19.7351C27.8986 18.6947 30.642 17.4639 30.835 19.7351C31.0272 21.998 29.9643 23.7505 27.8698 23.2971C28.2166 23.4909 26.2955 29.0437 21.1445 29.1416C15.8913 29.2414 15.5142 23.4425 14.8147 23.292C14.1152 23.1416 12.2594 23.9563 12.0112 20.5279Z" fill="#FFD7D8"/>
<path d="M17.968 30.9078V28.2856C20.0386 29.0442 21.2416 29.2518 23.6471 28.2856V30.9078C27.2198 29.4732 30.1255 29.4487 32.4812 30.3792C34.837 31.3096 37.971 36.0253 37.6976 41.1428H2.57144C3.03654 35.6051 4.21206 32.515 8.60809 30.3792C12.1122 29.2786 14.1536 29.3219 17.968 30.9078Z" fill="#FFD7D8"/>
<ellipse cx="17.8915" cy="24.3614" rx="1.73575" ry="1.64896" fill="#FFC5BF"/>
<ellipse cx="23.8277" cy="24.3614" rx="1.73575" ry="1.64896" fill="#FFC5BF"/>
<path d="M18 30.8571V28.2856C20.3431 29.2805 21.6567 29.2567 24 28.2856V29.261L18 30.8571Z" fill="#D3AEAA"/>
<ellipse cx="17.8011" cy="21.8475" rx="0.632808" ry="0.864838" fill="black"/>
<ellipse cx="23.9182" cy="21.8475" rx="0.632808" ry="0.864838" fill="black"/>
<path d="M21.4286 23.8841L20.8352 22.2856L20.5714 23.9999L21.4286 23.8841Z" fill="#FFBCBD"/>
<path d="M20.8572 22.2856L20.5714 23.9999L21.4286 23.7607" stroke="black" stroke-width="0.5"/>
<path d="M16.0713 19.8302C17.3791 18.9865 17.6322 19.2185 18.9077 19.4295C18.9077 19.4295 18.1384 18.9654 17.5056 19.0076C16.8728 19.0498 16.3244 19.3873 16.0713 19.8302Z" fill="black"/>
<path d="M22.9478 19.4294C24.4032 19.2395 24.6912 19.3805 25.8854 19.8758C25.8854 19.8758 25.2418 19.249 24.6159 19.1463C23.9901 19.0436 23.2431 19.0919 22.9478 19.4294Z" fill="black"/>
<path d="M12.3588 20.8621L14.0463 22.2964" stroke="black" stroke-width="0.5"/>
<path d="M30.0405 20.4343L28.6737 22.177" stroke="black" stroke-width="0.5"/>
<path d="M22.779 25.0327H18.8978C19.122 26.3275 19.9252 27.0155 20.9716 27.0155C22.018 27.0155 22.5998 26.2656 22.779 25.0327Z" fill="#FFC6FF"/>
<path d="M22.3993 25.2437H19.3197C19.4976 26.263 20.1349 26.8046 20.9652 26.8046C21.7955 26.8046 22.2571 26.2143 22.3993 25.2437Z" fill="white"/>
<path d="M31.5324 41.4209L30.9763 36.1914" stroke="black" stroke-width="0.5"/>
<path d="M9.73016 41.4592L10.3256 36.1281" stroke="black" stroke-width="0.5"/>
<path d="M14.4931 23.3848L15.4916 25.7143H5.18343C4.95482 25.1106 5.72365 23.5077 6.70036 22.5502C7.67708 21.5927 6.92895 18.9283 7.9472 18.0333C8.96545 17.1382 11.0019 16.5345 11.0019 16.5345C12.1449 16.2015 12.7498 15.0702 13.4125 12.8502C12.5289 14.2426 6.59644 11.7351 8.96545 8.47891C11.3345 5.22276 15.6357 9.34256 14.971 10.165C18.0323 8.73164 19.5844 9.24902 21.039 10.4771C22.1612 8.91597 24.1889 8.88825 26.3381 9.58207C27.5018 7.14663 29.8084 5.83515 31.9904 7.8335C34.1724 9.83185 32.4029 13.6569 28.3746 12.8502C28.3746 12.8502 28.6655 15.0982 30.2448 16.2847C31.8241 17.4712 33.1749 17.2631 34.1724 18.6161C35.1698 19.9691 34.1769 21.0907 34.8996 21.7384C35.6224 22.3861 37.1389 24.436 36.8115 25.7143H26.5261L27.4774 23.2303C27.4786 23.2263 27.4801 23.2223 27.482 23.2183L27.4774 23.2303C27.3807 23.564 29.8126 23.9998 30.2448 21.324C30.6822 18.6161 28.5231 19.4397 27.0041 19.8669L26.7962 17.827C24.4065 19.1593 22.7222 17.6169 21.8702 14.6819C19.7714 17.6169 16.9255 18.9095 15.1383 17.3066L14.889 19.8669C12.5615 18.2414 11.7926 20.1584 11.668 21.0326C11.5433 21.9069 12.7486 23.6346 14.4931 23.3848Z" fill="#323230"/>
<path d="M13.8241 23.3963C13.894 23.1811 14.1986 23.1811 14.2685 23.3963C14.2998 23.4926 14.3895 23.5578 14.4907 23.5578C14.7171 23.5578 14.8112 23.8474 14.6281 23.9805C14.5462 24.04 14.5119 24.1454 14.5432 24.2417C14.6131 24.457 14.3668 24.636 14.1836 24.5029C14.1018 24.4434 13.9909 24.4434 13.909 24.5029C13.7258 24.636 13.4795 24.457 13.5494 24.2417C13.5807 24.1454 13.5464 24.04 13.4645 23.9805C13.2814 23.8474 13.3755 23.5578 13.6019 23.5578C13.7031 23.5578 13.7928 23.4926 13.8241 23.3963Z" fill="#FBB620"/>
<path d="M27.7459 23.3963C27.8158 23.1811 28.1204 23.1811 28.1903 23.3963C28.2216 23.4926 28.3113 23.5578 28.4125 23.5578C28.6389 23.5578 28.733 23.8474 28.5499 23.9805C28.468 24.04 28.4337 24.1454 28.465 24.2417C28.5349 24.457 28.2885 24.636 28.1054 24.5029C28.0235 24.4434 27.9126 24.4434 27.8308 24.5029C27.6476 24.636 27.4012 24.457 27.4712 24.2417C27.5025 24.1454 27.4682 24.04 27.3863 23.9805C27.2032 23.8474 27.2973 23.5578 27.5237 23.5578C27.6249 23.5578 27.7146 23.4926 27.7459 23.3963Z" fill="#FBB620"/>
<path d="M14.0463 24.2312L14.321 25.0766H15.2099L14.4907 25.599L14.7654 26.4444L14.0463 25.9219L13.3272 26.4444L13.6019 25.599L12.8828 25.0766H13.7716L14.0463 24.2312Z" fill="#FBB620"/>
<path d="M27.9681 24.2312L28.2428 25.0766H29.1316L28.4125 25.599L28.6872 26.4444L27.9681 25.9219L27.249 26.4444L27.5237 25.599L26.8045 25.0766H27.6934L27.9681 24.2312Z" fill="#FBB620"/>
<path d="M24.1292 37.5413L25.6479 30.5593L26.808 30.2218L28.2846 37.5413C30.2191 39.3022 30.2339 39.7109 30.4783 41.4436H22.1042C22.0088 39.4457 22.2024 38.7653 24.1292 37.5413Z" fill="#307B74"/>
<path d="M13.1377 37.499L14.7425 30.1584L16.1136 30.517L17.2931 37.499C19.2277 39.2599 19.2425 39.6686 19.4869 41.4013H11.1127C11.0174 39.4035 11.211 38.7231 13.1377 37.499Z" fill="#307B74"/>
<rect x="18.8979" y="40.9795" width="3.50154" height="0.46406" fill="#307B74"/>
<path d="M17.8432 31.2344C17.8691 32.9843 18.3072 34.1875 20.4377 34.1875C22.5681 34.1875 23.3317 33.5182 23.897 31.2344" stroke="black" stroke-width="0.5"/>
<path d="M20.4588 33.0062L20.7334 33.8516H21.6223L20.9032 34.3741L21.1779 35.2194L20.4588 34.697L19.7396 35.2194L20.0143 34.3741L19.2952 33.8516H20.1841L20.4588 33.0062Z" fill="#FBB620"/>
</g>
</svg>
